# xmcd
#
# Track frame offsets: 
#        150
#        12814
#        26538
#        38015
#        51105
#        64492
#        80515
#        91662
#        101983
#        113625
#        129541
#        140852
#
# Disc length: 2106 seconds
#
# Revision: 0
# Processed by: cddbd v1.5.1PL2 Copyright (c) Steve Scherf et al.
# Submitted via: ExactAudioCopy v0.95b3
#
DISCID=9e08380c
DTITLE=Clarence Carter - Patches
DYEAR=1997
DGENRE=Blues
TTITLE0=Staring All Over Again
TTITLE1=Patches
TTITLE2=Slip Away
TTITLE3=Backstabbers
TTITLE4=Everybody Plays The Fool
TTITLE5=Lovely Day
TTITLE6=Woman Don't Go Astray
TTITLE7=Too Weak To Fight
TTITLE8=You Talk Too Much
TTITLE9=Drift Away
TTITLE10=Got A Thing About You Baby
TTITLE11=Brick House
EXTD=
EXTT0=
EXTT1=
EXTT2=
EXTT3=
EXTT4=
EXTT5=
EXTT6=
EXTT7=
EXTT8=
EXTT9=
EXTT10=
EXTT11=
PLAYORDER=
